HIERARCHY
ROOT Hips
{
	OFFSET 0.000000 0.000000 0.000000
	CHANNELS 6 Xposition Yposition Zposition Zrotation Yrotation Xrotation 
	JOINT LHipJoint
	{
		OFFSET 0.000000 0.000000 0.000000
		CHANNELS 3 Zrotation Yrotation Xrotation
		JOINT LeftUpLeg
		{
			OFFSET 1.363060 -1.794630 0.839290
			CHANNELS 3 Zrotation Yrotation Xrotation
			JOINT LeftLeg
			{
				OFFSET 2.448110 -6.726130 0.000000
				CHANNELS 3 Zrotation Yrotation Xrotation
				JOINT LeftFoot
				{
					OFFSET 2.562200 -7.039590 0.000000
					CHANNELS 3 Zrotation Yrotation Xrotation
					JOINT LeftToeBase
					{
						OFFSET 0.157640 -0.433110 2.322550
						CHANNELS 3 Zrotation Yrotation Xrotation
						End Site
						{
							OFFSET 0.000000 0.000000 0.000000
						}
					}
				}
			}
		}
	}
	JOINT RHipJoint
	{
		OFFSET 0.000000 0.000000 0.000000
		CHANNELS 3 Zrotation Yrotation Xrotation
		JOINT RightUpLeg
		{
			OFFSET -1.305520 -1.794630 0.839290
			CHANNELS 3 Zrotation Yrotation Xrotation
			JOINT RightLeg
			{
				OFFSET -2.542530 -6.985550 0.000000
				CHANNELS 3 Zrotation Yrotation Xrotation
				JOINT RightFoot
				{
					OFFSET -2.568260 -7.056230 0.000000
					CHANNELS 3 Zrotation Yrotation Xrotation
					JOINT RightToeBase
					{
						OFFSET -0.164730 -0.452590 2.363150
						CHANNELS 3 Zrotation Yrotation Xrotation
						End Site
						{
							OFFSET 0.000000 0.000000 0.000000
						}
					}
				}
			}
		}
	}
	JOINT LowerBack
	{
		OFFSET 0.000000 0.000000 0.000000
		CHANNELS 3 Zrotation Yrotation Xrotation
		JOINT Spine
		{
			OFFSET 0.028270 2.035590 -0.193380
			CHANNELS 3 Zrotation Yrotation Xrotation
			JOINT Spine1
			{
				OFFSET 0.056720 2.048850 -0.042750
				CHANNELS 3 Zrotation Yrotation Xrotation
				JOINT Neck
				{
					OFFSET 0.000000 0.000000 0.000000
					CHANNELS 3 Zrotation Yrotation Xrotation
					JOINT Neck1
					{
						OFFSET -0.054170 1.746240 0.172020
						CHANNELS 3 Zrotation Yrotation Xrotation
						JOINT Head
						{
							OFFSET 0.104070 1.761360 -0.123970
							CHANNELS 3 Zrotation Yrotation Xrotation
							End Site
							{
								OFFSET 0.000000 0.000000 0.000000
							}
						}
					}
				}
				JOINT LeftShoulder
				{
					OFFSET 0.000000 0.000000 0.000000
					CHANNELS 3 Zrotation Yrotation Xrotation
					JOINT LeftArm
					{
						OFFSET 3.362410 1.200890 -0.311210
						CHANNELS 3 Zrotation Yrotation Xrotation
						JOINT LeftForeArm
						{
							OFFSET 4.983000 -0.000000 -0.000000
							CHANNELS 3 Zrotation Yrotation Xrotation
							JOINT LeftHand
							{
								OFFSET 3.483560 -0.000000 -0.000000
								CHANNELS 3 Zrotation Yrotation Xrotation
								JOINT LeftFingerBase
								{
									OFFSET 0.000000 0.000000 0.000000
									CHANNELS 3 Zrotation Yrotation Xrotation
									JOINT LeftHandIndex1
									{
										OFFSET 0.715260 -0.000000 -0.000000
										CHANNELS 3 Zrotation Yrotation Xrotation
										End Site
										{
											OFFSET 0.000000 0.000000 0.000000
										}
									}
								}
								JOINT LThumb
								{
									OFFSET 0.000000 0.000000 0.000000
									CHANNELS 3 Zrotation Yrotation Xrotation
									End Site
									{
										OFFSET 0.000000 0.000000 0.000000
									}
								}
							}
						}
					}
				}
				JOINT RightShoulder
				{
					OFFSET 0.000000 0.000000 0.000000
					CHANNELS 3 Zrotation Yrotation Xrotation
					JOINT RightArm
					{
						OFFSET -3.136600 1.374050 -0.404650
						CHANNELS 3 Zrotation Yrotation Xrotation
						JOINT RightForeArm
						{
							OFFSET -5.241900 -0.000000 -0.000000
							CHANNELS 3 Zrotation Yrotation Xrotation
							JOINT RightHand
							{
								OFFSET -3.444170 -0.000000 -0.000000
								CHANNELS 3 Zrotation Yrotation Xrotation
								JOINT RightFingerBase
								{
									OFFSET 0.000000 0.000000 0.000000
									CHANNELS 3 Zrotation Yrotation Xrotation
									JOINT RightHandIndex1
									{
										OFFSET -0.622530 -0.000000 -0.000000
										CHANNELS 3 Zrotation Yrotation Xrotation
										End Site
										{
											OFFSET 0.000000 0.000000 0.000000
										}
									}
								}
								JOINT RThumb
								{
									OFFSET 0.000000 0.000000 0.000000
									CHANNELS 3 Zrotation Yrotation Xrotation
									End Site
									{
										OFFSET 0.000000 0.000000 0.000000
									}
								}
							}
						}
					}
				}
			}
		}
	}
}
MOTION
Frames: 10
Frame Time: 0.008333
24.189660 15.524350 4.244962 12.844797 -79.928106 -3.920787 -10.656712 6.965106 2.106424 4.285322 9.643183 20.223497 -0.866095 0.898823 7.627301 0.350417 0.516983 12.380489 0.149301 0.000000 -90.659300 9.417126 1.032425 2.238102 11.028637 -7.447836 -58.409376 0.797508 -4.150905 58.773858 -4.693710 -14.311155 -29.308136 -174.841999 -0.000000 -1.469100 6.153943 -8.146972 -7.389596 1.332178 -8.737328 -3.753068 -5.524850 -8.637316 3.346411 10.784555 -22.874056 -13.118495 -2.421396 -0.104410 -1.383178 0.000000 0.000000 0.000000 3.463195 5.395633 1.961318 -25.999454 -17.302329 5.168974 -1.347396 -55.744209 -0.011022 2.716282 -0.603181 -0.021144 -0.098933 0.315960 0.000000 0.000000 0.000000 0.000000 0.000000 0.000000 0.000000 17.923696 -24.204308 1.471661 86.787509 -25.664869 -14.429360 4.589686 15.499926 -0.006053 10.291868 -0.466439 -0.044761 0.034496 0.031635 0.000000 0.000000 0.000000 0.000000 0.000000 0.000000 0.000000 
23.928975 15.530913 4.201940 12.305487 -79.978983 -3.438909 -10.682600 7.112539 2.232722 4.734713 9.235518 19.950737 -0.654317 1.081969 8.847996 0.480756 0.539347 15.561238 0.090000 0.000000 -91.880800 9.446913 0.948603 2.131566 11.357083 -7.505691 -57.680940 0.743866 -4.174840 59.698394 -4.769868 -14.671538 -30.038721 -174.496700 0.000000 -3.877800 6.395114 -8.160644 -7.508787 1.385651 -8.775587 -3.778580 -5.540658 -8.670118 3.366793 10.885608 -22.934490 -13.262163 -2.406154 -0.100954 -1.422804 0.000000 0.000000 0.000000 3.343939 5.673941 2.043669 -25.290653 -16.135165 4.855244 -1.361200 -55.469233 -0.012998 3.170486 -0.679176 -0.026827 -0.107707 0.311379 0.000000 0.000000 0.000000 0.000000 0.000000 0.000000 0.000000 18.052608 -24.220850 1.448890 86.554677 -25.634348 -14.796284 4.595633 15.419153 -0.005704 10.215037 -0.385022 -0.037051 0.035359 0.030255 0.000000 0.000000 0.000000 0.000000 0.000000 0.000000 0.000000 
23.668489 15.539404 4.158141 11.735974 -80.062283 -2.954767 -10.716456 7.233756 2.356045 5.128194 8.785480 19.568115 -0.430494 1.248765 10.299706 0.649254 0.597780 18.778957 0.024100 -0.000000 -91.903200 9.476970 0.858045 1.998067 11.716332 -7.649319 -56.865893 0.715886 -4.189587 60.465887 -4.787498 -14.793571 -30.629651 -174.255800 -0.000000 -5.754000 6.624891 -8.155683 -7.581667 1.432461 -8.794981 -3.793382 -5.562699 -8.684753 3.386731 10.997355 -22.973130 -13.405959 -2.391958 -0.097540 -1.463234 0.000000 0.000000 0.000000 3.220298 5.999100 2.130693 -24.794252 -14.983740 4.605849 -1.391369 -55.022093 -0.014580 3.579627 -0.714896 -0.031404 -0.116649 0.304672 0.000000 0.000000 0.000000 0.000000 0.000000 0.000000 0.000000 18.182074 -24.203203 1.417748 86.205344 -25.415464 -15.375053 4.590405 15.227534 -0.005002 9.930796 -0.213481 -0.020934 0.037307 0.027806 0.000000 0.000000 0.000000 0.000000 0.000000 0.000000 0.000000 
23.409061 15.549472 4.113391 11.183297 -80.176735 -2.519109 -10.757279 7.320541 2.472744 5.452189 8.307807 19.073499 -0.206547 1.390405 12.005956 0.848319 0.706039 21.891968 -0.029600 -0.000000 -90.450100 9.508930 0.761984 1.837565 12.088811 -7.884357 -55.954720 0.712177 -4.194460 61.076686 -4.749751 -14.682754 -31.090375 -174.123700 0.000000 -7.120600 6.829750 -8.131727 -7.601584 1.468375 -8.793752 -3.797047 -5.593262 -8.679571 3.399880 11.114516 -22.970619 -13.537550 -2.383361 -0.094792 -1.500916 0.000000 0.000000 0.000000 3.107876 6.326691 2.219691 -24.503933 -13.800007 4.423622 -1.436085 -54.449089 -0.015655 3.925898 -0.714151 -0.034182 -0.125371 0.295728 0.000000 0.000000 0.000000 0.000000 0.000000 0.000000 0.000000 18.316652 -24.132480 1.381879 85.772807 -25.031288 -16.194925 4.571425 14.948934 -0.004010 9.438505 0.015193 -0.000810 0.040206 0.024392 0.000000 0.000000 0.000000 0.000000 0.000000 0.000000 0.000000 
23.151804 15.560728 4.067645 10.687698 -80.322413 -2.180345 -10.803346 7.366313 2.574971 5.701877 7.833142 18.464990 0.002680 1.502459 13.986142 1.063973 0.888546 24.721346 -0.042700 -0.000000 -87.360400 9.544178 0.661216 1.651941 12.455983 -8.208527 -54.939369 0.729923 -4.189185 61.537897 -4.663938 -14.364573 -31.439345 -174.092500 -0.000001 -8.016799 6.998246 -8.088249 -7.560610 1.490375 -8.770012 -3.788139 -5.631706 -8.652949 3.403710 11.230966 -22.922474 -13.650032 -2.381340 -0.092919 -1.533832 0.000000 0.000000 0.000000 3.011716 6.637710 2.307870 -24.402400 -12.575726 4.319263 -1.493735 -53.775459 -0.016148 4.195784 -0.687873 -0.035261 -0.133587 0.284614 0.000000 0.000000 0.000000 0.000000 0.000000 0.000000 0.000000 18.452574 -24.005305 1.343807 85.279014 -24.496668 -17.200295 4.535907 14.607247 -0.002821 8.735546 0.277681 0.019617 0.043939 0.020197 0.000000 0.000000 0.000000 0.000000 0.000000 0.000000 0.000000 
22.897391 15.572858 4.020935 10.285409 -80.500041 -1.976744 -10.851941 7.369075 2.652808 5.879491 7.400442 17.740370 0.183430 1.587174 16.245782 1.279021 1.191426 27.077976 0.025100 0.000000 -82.706300 9.583664 0.555075 1.445815 12.800213 -8.611272 -53.813853 0.765473 -4.173964 61.860057 -4.540925 -13.880847 -31.702003 -174.144600 -0.000000 -8.489200 7.122722 -8.024583 -7.452992 1.497049 -8.722043 -3.764424 -5.675192 -8.603479 3.401647 11.341533 -22.838540 -13.743772 -2.383414 -0.091684 -1.562038 0.000000 0.000000 0.000000 2.924798 6.950858 2.392648 -24.458924 -11.360716 4.315173 -1.563402 -52.997401 -0.016046 4.383567 -0.651013 -0.034843 -0.141213 0.271577 0.000000 0.000000 0.000000 0.000000 0.000000 0.000000 0.000000 18.581254 -23.833834 1.303955 84.734775 -23.816063 -18.265936 4.481952 14.224387 -0.001540 7.821144 0.557941 0.036947 0.048436 0.015472 0.000000 0.000000 0.000000 0.000000 0.000000 0.000000 0.000000 
22.646098 15.585576 3.973275 10.003369 -80.709147 -1.937698 -10.899910 7.331387 2.695187 5.994039 7.054853 16.893198 0.327309 1.653882 18.781574 1.477361 1.675113 28.790458 0.218400 0.000000 -76.792600 9.627886 0.442242 1.226627 13.105458 -9.074432 -52.576835 0.814466 -4.149458 62.057213 -4.394116 -13.285545 -31.908547 -174.255200 0.000000 -8.593900 7.198251 -7.940513 -7.277072 1.487102 -8.648806 -3.725858 -5.723345 -8.530206 3.392108 11.440834 -22.714281 -13.814148 -2.390595 -0.091273 -1.584144 0.000000 0.000000 0.000000 2.845533 7.259250 2.472016 -24.650435 -10.159050 4.424866 -1.644143 -52.130214 -0.015346 4.484400 -0.615558 -0.033728 -0.148193 0.256734 0.000000 0.000000 0.000000 0.000000 0.000000 0.000000 0.000000 18.701048 -23.613031 1.263745 84.158901 -23.014884 -19.318924 4.409811 13.843223 -0.000306 6.720089 0.820545 0.047277 0.053586 0.010488 0.000000 0.000000 0.000000 0.000000 0.000000 0.000000 0.000000 
22.398383 15.598643 3.924759 9.851845 -80.948820 -2.071856 -10.945136 7.259440 2.693220 6.060107 6.837520 15.910858 0.433898 1.715882 21.582152 1.648375 2.397229 29.736787 0.570399 0.000000 -70.127000 9.676421 0.321130 1.004161 13.361368 -9.572039 -51.233502 0.872404 -4.116537 62.145221 -4.238493 -12.639303 -32.092711 -174.395700 0.000000 -8.393900 7.223489 -7.835765 -7.037721 1.459697 -8.549480 -3.675675 -5.777510 -8.432237 3.367239 11.521141 -22.534939 -13.849991 -2.406384 -0.092238 -1.596815 0.000000 0.000000 0.000000 2.783248 7.509903 2.544011 -24.973113 -8.896514 4.641086 -1.734300 -51.221240 -0.014041 4.488642 -0.587683 -0.032016 -0.154368 0.240008 0.000000 0.000000 0.000000 0.000000 0.000000 0.000000 0.000000 18.808539 -23.325279 1.228061 83.576848 -22.133318 -20.320733 4.321844 13.509465 0.000744 5.476750 1.025049 0.048305 0.059256 0.005499 0.000000 0.000000 0.000000 0.000000 0.000000 0.000000 0.000000 
22.154165 15.611974 3.875558 9.847425 -81.218141 -2.387496 -10.985291 7.159047 2.643668 6.072499 6.751271 14.799003 0.510984 1.785608 24.600303 1.791427 3.430565 29.882123 1.109200 -0.000000 -63.440299 9.728327 0.191354 0.786344 13.559160 -10.076489 -49.793662 0.935607 -4.076892 62.139273 -4.088068 -11.998840 -32.288306 -174.538500 0.000000 -7.954200 7.201757 -7.710259 -6.741590 1.417011 -8.424125 -3.613239 -5.834293 -8.309586 3.336190 11.581427 -22.316798 -13.860557 -2.426713 -0.094048 -1.602687 0.000000 0.000000 0.000000 2.715807 7.768885 2.607229 -25.388136 -7.686394 4.992374 -1.834724 -50.228078 -0.012253 4.408622 -0.578879 -0.030306 -0.160005 0.221811 0.000000 0.000000 0.000000 0.000000 0.000000 0.000000 0.000000 18.898744 -22.988079 1.192863 82.984824 -21.170406 -21.144987 4.221929 13.243095 0.001515 4.128467 1.151651 0.040929 0.065382 0.000797 0.000000 0.000000 0.000000 0.000000 0.000000 0.000000 0.000000 
21.913574 15.625549 3.825848 9.997779 -81.516854 -2.883707 -11.020475 7.035903 2.547253 6.031551 6.798244 13.551872 0.568439 1.872090 27.804335 1.909967 4.792278 29.222912 1.813700 -0.000000 -57.209500 9.782493 0.053908 0.582240 13.695921 -10.557051 -48.272702 1.000633 -4.031658 62.054401 -3.955481 -11.415662 -32.525892 -174.659100 -0.000000 -7.344500 7.135677 -7.566013 -6.401750 1.358304 -8.275361 -3.542023 -5.903887 -8.163722 3.295247 11.635988 -22.056036 -13.842269 -2.458013 -0.097409 -1.600566 0.000000 0.000000 0.000000 2.661307 7.997511 2.658524 -25.899239 -6.453221 5.457441 -1.943973 -49.192980 -0.010047 4.240181 -0.587427 -0.028799 -0.164964 0.201962 0.000000 0.000000 0.000000 0.000000 0.000000 0.000000 0.000000 18.996827 -22.599599 1.152399 82.352729 -20.126510 -21.927260 4.123895 12.878325 0.002673 2.797908 1.666996 0.039959 0.071647 -0.005555 0.000000 0.000000 0.000000 0.000000 0.000000 0.000000 0.000000 
